<svg width="640" height="40" viewBox="0 0 640 40" fill="none" xmlns="http://www.w3.org/2000/svg">
<path d="M0.970703 20.1055L1.54492 15.0469H7.12305V16.6943H3.16504L2.91895 18.834C3.38835 18.5833 3.88737 18.458 4.41602 18.458C5.36393 18.458 6.10677 18.752 6.64453 19.3398C7.18229 19.9277 7.45117 20.7503 7.45117 21.8076C7.45117 22.4502 7.31445 23.0267 7.04102 23.5371C6.77214 24.043 6.38477 24.4372 5.87891 24.7197C5.37305 24.9977 4.77604 25.1367 4.08789 25.1367C3.48633 25.1367 2.92806 25.016 2.41309 24.7744C1.89811 24.5283 1.49023 24.1842 1.18945 23.7422C0.893229 23.3001 0.736003 22.7965 0.717773 22.2314H2.67285C2.71387 22.6462 2.85742 22.9697 3.10352 23.2021C3.35417 23.43 3.68001 23.5439 4.08105 23.5439C4.52767 23.5439 4.87174 23.3844 5.11328 23.0654C5.35482 22.7419 5.47559 22.2861 5.47559 21.6982C5.47559 21.1331 5.33659 20.7002 5.05859 20.3994C4.7806 20.0986 4.38639 19.9482 3.87598 19.9482C3.40658 19.9482 3.02604 20.0713 2.73438 20.3174L2.54297 20.4951L0.970703 20.1055ZM15.4834 16.1543L11.6348 25H9.5498L13.4053 16.6465H8.45605V15.0469H15.4834V16.1543ZM22.1143 14.9443V16.5713H21.9229C21.0296 16.585 20.3096 16.8174 19.7627 17.2686C19.2204 17.7197 18.8945 18.3464 18.7852 19.1484C19.3138 18.6107 19.9814 18.3418 20.7881 18.3418C21.654 18.3418 22.3421 18.6517 22.8525 19.2715C23.363 19.8913 23.6182 20.707 23.6182 21.7188C23.6182 22.3659 23.4769 22.9515 23.1943 23.4756C22.9163 23.9997 22.5199 24.4076 22.0049 24.6992C21.4945 24.9909 20.9157 25.1367 20.2686 25.1367C19.2204 25.1367 18.3727 24.7721 17.7256 24.043C17.083 23.3138 16.7617 22.3408 16.7617 21.124V20.4131C16.7617 19.333 16.9645 18.3805 17.3701 17.5557C17.7803 16.7262 18.3659 16.0859 19.127 15.6348C19.8926 15.179 20.779 14.9489 21.7861 14.9443H22.1143ZM20.1865 19.9277C19.8675 19.9277 19.5781 20.012 19.3184 20.1807C19.0586 20.3447 18.8672 20.5635 18.7441 20.8369V21.4385C18.7441 22.0993 18.874 22.6165 19.1338 22.9902C19.3936 23.3594 19.7581 23.5439 20.2275 23.5439C20.6514 23.5439 20.9932 23.3776 21.2529 23.0449C21.5173 22.7077 21.6494 22.2725 21.6494 21.7393C21.6494 21.1969 21.5173 20.7594 21.2529 20.4268C20.9886 20.0941 20.6331 19.9277 20.1865 19.9277ZM25.3887 27.4951L24.3564 26.9551L24.6025 26.5107C24.9079 25.9548 25.0651 25.401 25.0742 24.8496V23.3184H26.7422L26.7354 24.6855C26.7308 25.1914 26.6032 25.7018 26.3525 26.2168C26.1019 26.7318 25.7806 27.1579 25.3887 27.4951ZM32.833 21.0215C32.318 21.5273 31.7165 21.7803 31.0283 21.7803C30.1488 21.7803 29.4447 21.4795 28.916 20.8779C28.3874 20.2718 28.123 19.4561 28.123 18.4307C28.123 17.779 28.2643 17.182 28.5469 16.6396C28.834 16.0928 29.2327 15.6689 29.7432 15.3682C30.2536 15.0628 30.8278 14.9102 31.4658 14.9102C32.1221 14.9102 32.7054 15.0742 33.2158 15.4023C33.7262 15.7305 34.1227 16.2021 34.4053 16.8174C34.6878 17.4326 34.8314 18.1367 34.8359 18.9297V19.6611C34.8359 21.32 34.4235 22.6234 33.5986 23.5713C32.7738 24.5192 31.6048 25.0251 30.0918 25.0889L29.6064 25.0957V23.4482L30.0439 23.4414C31.762 23.3639 32.6917 22.5573 32.833 21.0215ZM31.5137 20.2695C31.8327 20.2695 32.1061 20.1875 32.334 20.0234C32.5664 19.8594 32.7419 19.6611 32.8604 19.4287V18.6152C32.8604 17.9453 32.7327 17.4258 32.4775 17.0566C32.2223 16.6875 31.8805 16.5029 31.4521 16.5029C31.0557 16.5029 30.7298 16.6852 30.4746 17.0498C30.2194 17.4098 30.0918 17.8633 30.0918 18.4102C30.0918 18.9525 30.2148 19.3991 30.4609 19.75C30.7116 20.0964 31.0625 20.2695 31.5137 20.2695ZM41.6104 14.9443V16.5713H41.4189C40.5257 16.585 39.8057 16.8174 39.2588 17.2686C38.7165 17.7197 38.3906 18.3464 38.2812 19.1484C38.8099 18.6107 39.4775 18.3418 40.2842 18.3418C41.1501 18.3418 41.8382 18.6517 42.3486 19.2715C42.859 19.8913 43.1143 20.707 43.1143 21.7188C43.1143 22.3659 42.973 22.9515 42.6904 23.4756C42.4124 23.9997 42.016 24.4076 41.501 24.6992C40.9906 24.9909 40.4118 25.1367 39.7646 25.1367C38.7165 25.1367 37.8688 24.7721 37.2217 24.043C36.5791 23.3138 36.2578 22.3408 36.2578 21.124V20.4131C36.2578 19.333 36.4606 18.3805 36.8662 17.5557C37.2764 16.7262 37.862 16.0859 38.623 15.6348C39.3887 15.179 40.2751 14.9489 41.2822 14.9443H41.6104ZM39.6826 19.9277C39.3636 19.9277 39.0742 20.012 38.8145 20.1807C38.5547 20.3447 38.3633 20.5635 38.2402 20.8369V21.4385C38.2402 22.0993 38.3701 22.6165 38.6299 22.9902C38.8896 23.3594 39.2542 23.5439 39.7236 23.5439C40.1475 23.5439 40.4893 23.3776 40.749 23.0449C41.0133 22.7077 41.1455 22.2725 41.1455 21.7393C41.1455 21.1969 41.0133 20.7594 40.749 20.4268C40.4847 20.0941 40.1292 19.9277 39.6826 19.9277ZM48.9111 21.0215C48.3962 21.5273 47.7946 21.7803 47.1064 21.7803C46.2269 21.7803 45.5228 21.4795 44.9941 20.8779C44.4655 20.2718 44.2012 19.4561 44.2012 18.4307C44.2012 17.779 44.3424 17.182 44.625 16.6396C44.9121 16.0928 45.3109 15.6689 45.8213 15.3682C46.3317 15.0628 46.9059 14.9102 47.5439 14.9102C48.2002 14.9102 48.7835 15.0742 49.2939 15.4023C49.8044 15.7305 50.2008 16.2021 50.4834 16.8174C50.766 17.4326 50.9095 18.1367 50.9141 18.9297V19.6611C50.9141 21.32 50.5016 22.6234 49.6768 23.5713C48.8519 24.5192 47.6829 25.0251 46.1699 25.0889L45.6846 25.0957V23.4482L46.1221 23.4414C47.8402 23.3639 48.7699 22.5573 48.9111 21.0215ZM47.5918 20.2695C47.9108 20.2695 48.1842 20.1875 48.4121 20.0234C48.6445 19.8594 48.82 19.6611 48.9385 19.4287V18.6152C48.9385 17.9453 48.8109 17.4258 48.5557 17.0566C48.3005 16.6875 47.9587 16.5029 47.5303 16.5029C47.1338 16.5029 46.8079 16.6852 46.5527 17.0498C46.2975 17.4098 46.1699 17.8633 46.1699 18.4102C46.1699 18.9525 46.293 19.3991 46.5391 19.75C46.7897 20.0964 47.1406 20.2695 47.5918 20.2695ZM58.666 22.5869L60.04 17.6035H62.1045L59.6094 25H57.7227L55.2275 17.6035H57.292L58.666 22.5869ZM65.0645 25H63.082V17.6035H65.0645V25ZM62.9658 15.6895C62.9658 15.3932 63.0638 15.1494 63.2598 14.958C63.4603 14.7666 63.7314 14.6709 64.0732 14.6709C64.4105 14.6709 64.6794 14.7666 64.8799 14.958C65.0804 15.1494 65.1807 15.3932 65.1807 15.6895C65.1807 15.9902 65.0781 16.2363 64.873 16.4277C64.6725 16.6191 64.4059 16.7148 64.0732 16.7148C63.7406 16.7148 63.4717 16.6191 63.2666 16.4277C63.0661 16.2363 62.9658 15.9902 62.9658 15.6895ZM70.1025 25.1367C69.0179 25.1367 68.1338 24.804 67.4502 24.1387C66.7712 23.4733 66.4316 22.5869 66.4316 21.4795V21.2881C66.4316 20.5452 66.5752 19.8822 66.8623 19.2988C67.1494 18.7109 67.555 18.2598 68.0791 17.9453C68.6077 17.6263 69.2093 17.4668 69.8838 17.4668C70.8955 17.4668 71.6908 17.7858 72.2695 18.4238C72.8529 19.0618 73.1445 19.9665 73.1445 21.1377V21.9443H68.4346C68.4984 22.4274 68.6898 22.8148 69.0088 23.1064C69.3324 23.3981 69.7402 23.5439 70.2324 23.5439C70.9935 23.5439 71.5882 23.2682 72.0166 22.7168L72.9873 23.8037C72.6911 24.223 72.29 24.5511 71.7842 24.7881C71.2783 25.0205 70.7178 25.1367 70.1025 25.1367ZM69.877 19.0664C69.485 19.0664 69.166 19.1986 68.9199 19.4629C68.6784 19.7272 68.5234 20.1055 68.4551 20.5977H71.2031V20.4404C71.194 20.0029 71.0755 19.6657 70.8477 19.4287C70.6198 19.1872 70.2962 19.0664 69.877 19.0664ZM80.7051 22.3135L81.6758 17.6035H83.583L81.6963 25H80.042L78.6406 20.3447L77.2393 25H75.5918L73.7051 17.6035H75.6123L76.5762 22.3066L77.9297 17.6035H79.3584L80.7051 22.3135ZM88.5732 22.9561C88.5732 22.7145 88.4525 22.5254 88.2109 22.3887C87.974 22.2474 87.5911 22.1221 87.0625 22.0127C85.3034 21.6436 84.4238 20.8962 84.4238 19.7705C84.4238 19.1143 84.695 18.5674 85.2373 18.1299C85.7842 17.6878 86.4974 17.4668 87.377 17.4668C88.3158 17.4668 89.0654 17.6878 89.626 18.1299C90.1911 18.5719 90.4736 19.1462 90.4736 19.8525H88.498C88.498 19.57 88.4069 19.3376 88.2246 19.1553C88.0423 18.9684 87.7575 18.875 87.3701 18.875C87.0374 18.875 86.7799 18.9502 86.5977 19.1006C86.4154 19.251 86.3242 19.4424 86.3242 19.6748C86.3242 19.8936 86.4268 20.0713 86.6318 20.208C86.8415 20.3402 87.1924 20.4564 87.6846 20.5566C88.1768 20.6523 88.5915 20.7617 88.9287 20.8848C89.9723 21.2676 90.4941 21.9307 90.4941 22.874C90.4941 23.5485 90.2048 24.0954 89.626 24.5146C89.0472 24.9294 88.2998 25.1367 87.3838 25.1367C86.764 25.1367 86.2126 25.0273 85.7295 24.8086C85.251 24.5853 84.875 24.2822 84.6016 23.8994C84.3281 23.512 84.1914 23.0951 84.1914 22.6484H86.0645C86.0827 22.9993 86.2126 23.2682 86.4541 23.4551C86.6956 23.6419 87.0192 23.7354 87.4248 23.7354C87.8031 23.7354 88.0879 23.6647 88.2793 23.5234C88.4753 23.3776 88.5732 23.1885 88.5732 22.9561ZM95.3613 24.0293C95.3613 23.7148 95.4661 23.4596 95.6758 23.2637C95.89 23.0677 96.1566 22.9697 96.4756 22.9697C96.7992 22.9697 97.0658 23.0677 97.2754 23.2637C97.4896 23.4596 97.5967 23.7148 97.5967 24.0293C97.5967 24.3392 97.4919 24.5921 97.2822 24.7881C97.0726 24.9795 96.8037 25.0752 96.4756 25.0752C96.152 25.0752 95.8854 24.9795 95.6758 24.7881C95.4661 24.5921 95.3613 24.3392 95.3613 24.0293ZM111.125 20.249C111.125 21.2288 110.952 22.0879 110.605 22.8262C110.259 23.5645 109.762 24.1341 109.115 24.5352C108.473 24.9362 107.734 25.1367 106.9 25.1367C106.076 25.1367 105.34 24.9385 104.692 24.542C104.045 24.1455 103.544 23.5804 103.188 22.8467C102.833 22.1084 102.653 21.2607 102.648 20.3037V19.8115C102.648 18.8317 102.824 17.9704 103.175 17.2275C103.53 16.4801 104.029 15.9082 104.672 15.5117C105.319 15.1107 106.057 14.9102 106.887 14.9102C107.716 14.9102 108.452 15.1107 109.095 15.5117C109.742 15.9082 110.241 16.4801 110.592 17.2275C110.947 17.9704 111.125 18.8294 111.125 19.8047V20.249ZM109.047 19.7979C109.047 18.7542 108.86 17.9613 108.486 17.4189C108.113 16.8766 107.579 16.6055 106.887 16.6055C106.199 16.6055 105.668 16.8743 105.294 17.4121C104.92 17.9453 104.731 18.7292 104.727 19.7637V20.249C104.727 21.2653 104.913 22.0537 105.287 22.6143C105.661 23.1748 106.199 23.4551 106.9 23.4551C107.589 23.4551 108.117 23.1862 108.486 22.6484C108.855 22.1061 109.042 21.3177 109.047 20.2832V19.7979ZM115.562 23.5439C115.926 23.5439 116.222 23.4437 116.45 23.2432C116.678 23.0426 116.797 22.776 116.806 22.4434H118.658C118.654 22.9447 118.517 23.4049 118.248 23.8242C117.979 24.2389 117.61 24.5625 117.141 24.7949C116.676 25.0228 116.161 25.1367 115.596 25.1367C114.538 25.1367 113.704 24.8018 113.094 24.1318C112.483 23.4574 112.178 22.5277 112.178 21.3428V21.2129C112.178 20.0736 112.481 19.1644 113.087 18.4854C113.693 17.8063 114.525 17.4668 115.582 17.4668C116.507 17.4668 117.248 17.7311 117.804 18.2598C118.364 18.7839 118.649 19.4834 118.658 20.3584H116.806C116.797 19.9756 116.678 19.6657 116.45 19.4287C116.222 19.1872 115.922 19.0664 115.548 19.0664C115.088 19.0664 114.739 19.235 114.502 19.5723C114.27 19.9049 114.153 20.4473 114.153 21.1992V21.4043C114.153 22.1654 114.27 22.7122 114.502 23.0449C114.734 23.3776 115.088 23.5439 115.562 23.5439ZM122.151 15.7852V17.6035H123.416V19.0527H122.151V22.7441C122.151 23.0176 122.204 23.2135 122.309 23.332C122.413 23.4505 122.614 23.5098 122.91 23.5098C123.129 23.5098 123.323 23.4938 123.491 23.4619V24.959C123.104 25.0775 122.705 25.1367 122.295 25.1367C120.91 25.1367 120.203 24.4372 120.176 23.0381V19.0527H119.096V17.6035H120.176V15.7852H122.151ZM134.408 17.6924C134.408 18.1755 134.287 18.6038 134.046 18.9775C133.804 19.3512 133.472 19.6497 133.048 19.873C133.531 20.1055 133.914 20.4268 134.196 20.8369C134.479 21.2425 134.62 21.721 134.62 22.2725C134.62 23.1566 134.319 23.8561 133.718 24.3711C133.116 24.8815 132.298 25.1367 131.264 25.1367C130.229 25.1367 129.409 24.8792 128.803 24.3643C128.197 23.8493 127.894 23.152 127.894 22.2725C127.894 21.721 128.035 21.2402 128.317 20.8301C128.6 20.4199 128.98 20.1009 129.459 19.873C129.035 19.6497 128.702 19.3512 128.461 18.9775C128.224 18.6038 128.105 18.1755 128.105 17.6924C128.105 16.8447 128.388 16.1702 128.953 15.6689C129.518 15.1631 130.286 14.9102 131.257 14.9102C132.223 14.9102 132.989 15.1608 133.554 15.6621C134.123 16.1589 134.408 16.8356 134.408 17.6924ZM132.638 22.1289C132.638 21.696 132.512 21.3496 132.262 21.0898C132.011 20.8301 131.674 20.7002 131.25 20.7002C130.831 20.7002 130.496 20.8301 130.245 21.0898C129.994 21.3451 129.869 21.6914 129.869 22.1289C129.869 22.5527 129.992 22.8945 130.238 23.1543C130.484 23.4141 130.826 23.5439 131.264 23.5439C131.692 23.5439 132.027 23.4186 132.269 23.168C132.515 22.9173 132.638 22.571 132.638 22.1289ZM132.433 17.7881C132.433 17.4007 132.33 17.0908 132.125 16.8584C131.92 16.6214 131.631 16.5029 131.257 16.5029C130.888 16.5029 130.601 16.6169 130.396 16.8447C130.19 17.0726 130.088 17.387 130.088 17.7881C130.088 18.1846 130.19 18.5036 130.396 18.7451C130.601 18.9867 130.89 19.1074 131.264 19.1074C131.637 19.1074 131.924 18.9867 132.125 18.7451C132.33 18.5036 132.433 18.1846 132.433 17.7881ZM136.555 27.4951L135.522 26.9551L135.769 26.5107C136.074 25.9548 136.231 25.401 136.24 24.8496V23.3184H137.908L137.901 24.6855C137.897 25.1914 137.769 25.7018 137.519 26.2168C137.268 26.7318 136.947 27.1579 136.555 27.4951ZM149.687 25H142.864V23.6465L146.084 20.2148C146.526 19.7318 146.852 19.3102 147.062 18.9502C147.276 18.5902 147.383 18.2484 147.383 17.9248C147.383 17.4827 147.271 17.1364 147.048 16.8857C146.825 16.6305 146.506 16.5029 146.091 16.5029C145.644 16.5029 145.291 16.6579 145.031 16.9678C144.776 17.2731 144.648 17.6764 144.648 18.1777H142.666C142.666 17.5716 142.81 17.0179 143.097 16.5166C143.388 16.0153 143.799 15.6234 144.327 15.3408C144.856 15.0537 145.455 14.9102 146.125 14.9102C147.15 14.9102 147.946 15.1562 148.511 15.6484C149.08 16.1406 149.365 16.8356 149.365 17.7334C149.365 18.2256 149.238 18.7269 148.982 19.2373C148.727 19.7477 148.29 20.3424 147.67 21.0215L145.407 23.4072H149.687V25ZM157.603 20.8848C157.603 22.2611 157.318 23.3138 156.748 24.043C156.178 24.7721 155.344 25.1367 154.246 25.1367C153.161 25.1367 152.332 24.779 151.758 24.0635C151.184 23.348 150.89 22.3226 150.876 20.9873V19.1553C150.876 17.7653 151.163 16.7103 151.737 15.9902C152.316 15.2702 153.148 14.9102 154.232 14.9102C155.317 14.9102 156.146 15.2679 156.721 15.9834C157.295 16.6943 157.589 17.7174 157.603 19.0527V20.8848ZM155.627 18.875C155.627 18.0501 155.513 17.4508 155.285 17.0771C155.062 16.6989 154.711 16.5098 154.232 16.5098C153.768 16.5098 153.424 16.6898 153.2 17.0498C152.981 17.4053 152.865 17.9635 152.852 18.7246V21.1445C152.852 21.9557 152.961 22.5596 153.18 22.9561C153.403 23.348 153.758 23.5439 154.246 23.5439C154.729 23.5439 155.078 23.3548 155.292 22.9766C155.506 22.5983 155.618 22.0195 155.627 21.2402V18.875ZM165.765 25H158.942V23.6465L162.162 20.2148C162.604 19.7318 162.93 19.3102 163.14 18.9502C163.354 18.5902 163.461 18.2484 163.461 17.9248C163.461 17.4827 163.349 17.1364 163.126 16.8857C162.903 16.6305 162.584 16.5029 162.169 16.5029C161.722 16.5029 161.369 16.6579 161.109 16.9678C160.854 17.2731 160.727 17.6764 160.727 18.1777H158.744C158.744 17.5716 158.888 17.0179 159.175 16.5166C159.466 16.0153 159.877 15.6234 160.405 15.3408C160.934 15.0537 161.533 14.9102 162.203 14.9102C163.229 14.9102 164.024 15.1562 164.589 15.6484C165.159 16.1406 165.443 16.8356 165.443 17.7334C165.443 18.2256 165.316 18.7269 165.061 19.2373C164.805 19.7477 164.368 20.3424 163.748 21.0215L161.485 23.4072H165.765V25ZM171.78 25H169.805V17.3848L167.446 18.1162V16.5098L171.568 15.0332H171.78V25Z" fill="#AAAAAA"/>
<path d="M290.77 19H286.54L288.06 14.06C288.38 13.03 287.54 12 286.38 12C285.8 12 285.24 12.24 284.86 12.65L279 19H275V29H279H280H289.43C290.49 29 291.41 28.33 291.62 27.39L292.96 21.39C293.23 20.15 292.18 19 290.77 19ZM279 28H276V20H279V28ZM291.98 21.17L290.64 27.17C290.54 27.65 290.03 28 289.43 28H280V19.39L285.6 13.33C285.79 13.12 286.08 13 286.38 13C286.64 13 286.88 13.11 287.01 13.3C287.08 13.4 287.16 13.56 287.1 13.77L285.58 18.71L285.18 20H286.53H290.76C291.17 20 291.56 20.17 291.79 20.46C291.92 20.61 292.05 20.86 291.98 21.17Z" fill="white"/>
<path d="M307.476 25H305.5V17.3848L303.142 18.1162V16.5098L307.264 15.0332H307.476V25ZM310.9 24.0293C310.9 23.7148 311.005 23.4596 311.215 23.2637C311.429 23.0677 311.696 22.9697 312.015 22.9697C312.338 22.9697 312.605 23.0677 312.814 23.2637C313.029 23.4596 313.136 23.7148 313.136 24.0293C313.136 24.3392 313.031 24.5921 312.821 24.7881C312.612 24.9795 312.343 25.0752 312.015 25.0752C311.691 25.0752 311.424 24.9795 311.215 24.7881C311.005 24.5921 310.9 24.3392 310.9 24.0293ZM321.558 16.1543L317.709 25H315.624L319.479 16.6465H314.53V15.0469H321.558V16.1543ZM329.645 21.0078L328.578 22.1562V25H326.527V15.0469H328.578V19.5586L329.48 18.3213L332.017 15.0469H334.539L331.005 19.4697L334.642 25H332.201L329.645 21.0078Z" fill="white"/>
<path d="M372 12H371H361.57C360.5 12 359.59 12.67 359.38 13.61L358.04 19.61C357.77 20.85 358.82 22 360.23 22H364.46L362.94 26.94C362.62 27.97 363.46 29 364.62 29C365.2 29 365.76 28.76 366.14 28.35L372 22H376V12H372ZM365.4 27.67C365.21 27.88 364.92 28 364.62 28C364.36 28 364.12 27.89 363.99 27.7C363.92 27.6 363.84 27.44 363.9 27.23L365.42 22.29L365.82 21H364.46H360.23C359.82 21 359.43 20.83 359.2 20.54C359.08 20.39 358.95 20.14 359.02 19.82L360.36 13.82C360.46 13.35 360.97 13 361.57 13H371V21.61L365.4 27.67ZM375 21H372V13H375V21Z" fill="white"/>
<path d="M391.036 14.9443V16.5713H390.845C389.951 16.585 389.231 16.8174 388.685 17.2686C388.142 17.7197 387.816 18.3464 387.707 19.1484C388.236 18.6107 388.903 18.3418 389.71 18.3418C390.576 18.3418 391.264 18.6517 391.774 19.2715C392.285 19.8913 392.54 20.707 392.54 21.7188C392.54 22.3659 392.399 22.9515 392.116 23.4756C391.838 23.9997 391.442 24.4076 390.927 24.6992C390.416 24.9909 389.838 25.1367 389.19 25.1367C388.142 25.1367 387.295 24.7721 386.647 24.043C386.005 23.3138 385.684 22.3408 385.684 21.124V20.4131C385.684 19.333 385.886 18.3805 386.292 17.5557C386.702 16.7262 387.288 16.0859 388.049 15.6348C388.814 15.179 389.701 14.9489 390.708 14.9443H391.036ZM389.108 19.9277C388.789 19.9277 388.5 20.012 388.24 20.1807C387.98 20.3447 387.789 20.5635 387.666 20.8369V21.4385C387.666 22.0993 387.796 22.6165 388.056 22.9902C388.315 23.3594 388.68 23.5439 389.149 23.5439C389.573 23.5439 389.915 23.3776 390.175 23.0449C390.439 22.7077 390.571 22.2725 390.571 21.7393C390.571 21.1969 390.439 20.7594 390.175 20.4268C389.91 20.0941 389.555 19.9277 389.108 19.9277ZM395.726 19.1484H396.778C397.28 19.1484 397.651 19.0231 397.893 18.7725C398.134 18.5218 398.255 18.1891 398.255 17.7744C398.255 17.3734 398.134 17.0612 397.893 16.8379C397.656 16.6146 397.327 16.5029 396.908 16.5029C396.53 16.5029 396.213 16.6077 395.958 16.8174C395.703 17.0225 395.575 17.2913 395.575 17.624H393.6C393.6 17.1045 393.739 16.6396 394.017 16.2295C394.299 15.8148 394.691 15.4912 395.192 15.2588C395.698 15.0264 396.254 14.9102 396.86 14.9102C397.913 14.9102 398.738 15.1631 399.335 15.6689C399.932 16.1702 400.23 16.863 400.23 17.7471C400.23 18.2028 400.091 18.6221 399.813 19.0049C399.535 19.3877 399.171 19.6816 398.72 19.8867C399.28 20.0872 399.697 20.388 399.971 20.7891C400.249 21.1901 400.388 21.6641 400.388 22.2109C400.388 23.0951 400.064 23.8037 399.417 24.3369C398.774 24.8701 397.922 25.1367 396.86 25.1367C395.867 25.1367 395.053 24.8747 394.42 24.3506C393.791 23.8265 393.477 23.1338 393.477 22.2725H395.452C395.452 22.6462 395.591 22.9515 395.869 23.1885C396.152 23.4255 396.498 23.5439 396.908 23.5439C397.378 23.5439 397.744 23.4209 398.009 23.1748C398.278 22.9242 398.412 22.5938 398.412 22.1836C398.412 21.1901 397.865 20.6934 396.771 20.6934H395.726V19.1484ZM408.577 25H401.755V23.6465L404.975 20.2148C405.417 19.7318 405.743 19.3102 405.952 18.9502C406.166 18.5902 406.273 18.2484 406.273 17.9248C406.273 17.4827 406.162 17.1364 405.938 16.8857C405.715 16.6305 405.396 16.5029 404.981 16.5029C404.535 16.5029 404.182 16.6579 403.922 16.9678C403.667 17.2731 403.539 17.6764 403.539 18.1777H401.557C401.557 17.5716 401.7 17.0179 401.987 16.5166C402.279 16.0153 402.689 15.6234 403.218 15.3408C403.746 15.0537 404.346 14.9102 405.016 14.9102C406.041 14.9102 406.836 15.1562 407.401 15.6484C407.971 16.1406 408.256 16.8356 408.256 17.7334C408.256 18.2256 408.128 18.7269 407.873 19.2373C407.618 19.7477 407.18 20.3424 406.561 21.0215L404.298 23.4072H408.577V25Z" fill="white"/>
<path d="M445 13.63L450.66 20L445 26.37V23V22H444C440.04 22 436.86 23 434.25 25.09C436.09 21.02 439.36 18.69 444.14 17.99L445 17.86V17V13.63ZM444 11V17C436.22 18.13 433.11 23.33 432 29C434.78 25.03 438.44 23 444 23V29L452 20L444 11Z" fill="white"/>
<path d="M466.05 22.3887C466.05 22.0013 465.913 21.7051 465.64 21.5C465.366 21.2904 464.874 21.0716 464.163 20.8438C463.452 20.6113 462.889 20.3835 462.475 20.1602C461.344 19.5495 460.779 18.7269 460.779 17.6924C460.779 17.1546 460.93 16.6761 461.23 16.2568C461.536 15.833 461.971 15.5026 462.536 15.2656C463.106 15.0286 463.744 14.9102 464.45 14.9102C465.161 14.9102 465.795 15.04 466.351 15.2998C466.907 15.555 467.337 15.9173 467.643 16.3867C467.952 16.8561 468.107 17.3893 468.107 17.9863H466.057C466.057 17.5306 465.913 17.1774 465.626 16.9268C465.339 16.6715 464.936 16.5439 464.416 16.5439C463.915 16.5439 463.525 16.651 463.247 16.8652C462.969 17.0749 462.83 17.3529 462.83 17.6992C462.83 18.0228 462.992 18.2939 463.315 18.5127C463.644 18.7314 464.124 18.9365 464.758 19.1279C465.924 19.4788 466.774 19.9141 467.308 20.4336C467.841 20.9531 468.107 21.6003 468.107 22.375C468.107 23.2363 467.782 23.9131 467.13 24.4053C466.478 24.8929 465.601 25.1367 464.498 25.1367C463.732 25.1367 463.035 24.9977 462.406 24.7197C461.777 24.4372 461.297 24.0521 460.964 23.5645C460.636 23.0768 460.472 22.5117 460.472 21.8691H462.529C462.529 22.9674 463.186 23.5166 464.498 23.5166C464.986 23.5166 465.366 23.4186 465.64 23.2227C465.913 23.0221 466.05 22.7441 466.05 22.3887ZM477.603 25H475.552V20.7344H471.553V25H469.502V15.0469H471.553V19.0801H475.552V15.0469H477.603V25ZM485.143 22.9492H481.547L480.863 25H478.683L482.388 15.0469H484.288L488.014 25H485.833L485.143 22.9492ZM482.101 21.2881H484.589L483.338 17.5625L482.101 21.2881ZM492.628 21.3564H490.994V25H488.943V15.0469H492.642C493.817 15.0469 494.724 15.3089 495.362 15.833C496 16.3571 496.319 17.0977 496.319 18.0547C496.319 18.7337 496.171 19.3011 495.875 19.7568C495.583 20.208 495.139 20.568 494.542 20.8369L496.695 24.9043V25H494.494L492.628 21.3564ZM490.994 19.6953H492.648C493.163 19.6953 493.562 19.5654 493.845 19.3057C494.127 19.0413 494.269 18.679 494.269 18.2188C494.269 17.7493 494.134 17.3802 493.865 17.1113C493.601 16.8424 493.193 16.708 492.642 16.708H490.994V19.6953ZM503.873 20.6865H499.936V23.3525H504.557V25H497.885V15.0469H504.543V16.708H499.936V19.0801H503.873V20.6865Z" fill="white"/>
<path d="M547 21H543V25H541V21H537V19H541V15H543V19H547V21ZM539 15H527V16H539V15ZM527 20H535V19H527V20ZM527 24H535V23H527V24Z" fill="white"/>
<path d="M561.05 22.3887C561.05 22.0013 560.913 21.7051 560.64 21.5C560.366 21.2904 559.874 21.0716 559.163 20.8438C558.452 20.6113 557.889 20.3835 557.475 20.1602C556.344 19.5495 555.779 18.7269 555.779 17.6924C555.779 17.1546 555.93 16.6761 556.23 16.2568C556.536 15.833 556.971 15.5026 557.536 15.2656C558.106 15.0286 558.744 14.9102 559.45 14.9102C560.161 14.9102 560.795 15.04 561.351 15.2998C561.907 15.555 562.337 15.9173 562.643 16.3867C562.952 16.8561 563.107 17.3893 563.107 17.9863H561.057C561.057 17.5306 560.913 17.1774 560.626 16.9268C560.339 16.6715 559.936 16.5439 559.416 16.5439C558.915 16.5439 558.525 16.651 558.247 16.8652C557.969 17.0749 557.83 17.3529 557.83 17.6992C557.83 18.0228 557.992 18.2939 558.315 18.5127C558.644 18.7314 559.124 18.9365 559.758 19.1279C560.924 19.4788 561.774 19.9141 562.308 20.4336C562.841 20.9531 563.107 21.6003 563.107 22.375C563.107 23.2363 562.782 23.9131 562.13 24.4053C561.478 24.8929 560.601 25.1367 559.498 25.1367C558.732 25.1367 558.035 24.9977 557.406 24.7197C556.777 24.4372 556.297 24.0521 555.964 23.5645C555.636 23.0768 555.472 22.5117 555.472 21.8691H557.529C557.529 22.9674 558.186 23.5166 559.498 23.5166C559.986 23.5166 560.366 23.4186 560.64 23.2227C560.913 23.0221 561.05 22.7441 561.05 22.3887ZM570.121 22.9492H566.525L565.842 25H563.661L567.366 15.0469H569.267L572.992 25H570.812L570.121 22.9492ZM567.079 21.2881H569.567L568.316 17.5625L567.079 21.2881ZM577.066 22.5322L579.322 15.0469H581.605L578.14 25H576L572.548 15.0469H574.824L577.066 22.5322ZM588.537 20.6865H584.6V23.3525H589.221V25H582.549V15.0469H589.207V16.708H584.6V19.0801H588.537V20.6865Z" fill="white"/>
<path d="M617.5 20C617.5 20.83 616.83 21.5 616 21.5C615.17 21.5 614.5 20.83 614.5 20C614.5 19.17 615.17 18.5 616 18.5C616.83 18.5 617.5 19.17 617.5 20ZM622 18.5C621.17 18.5 620.5 19.17 620.5 20C620.5 20.83 621.17 21.5 622 21.5C622.83 21.5 623.5 20.83 623.5 20C623.5 19.17 622.83 18.5 622 18.5ZM628 18.5C627.17 18.5 626.5 19.17 626.5 20C626.5 20.83 627.17 21.5 628 21.5C628.83 21.5 629.5 20.83 629.5 20C629.5 19.17 628.83 18.5 628 18.5Z" fill="white"/>
</svg>
