<svg width="224" height="181" viewBox="0 0 224 181" fill="none" xmlns="http://www.w3.org/2000/svg">
<g clip-path="url(#clip0_8956_729)">
<path d="M34 61.35L39 64L34 66.65V61.35ZM36 58C33.4743 57.9508 30.9481 58.0778 28.44 58.38C28.1873 58.4509 27.957 58.5856 27.7713 58.7713C27.5857 58.9569 27.4509 59.1872 27.38 59.44C27.1121 60.9449 26.9849 62.4715 27 64C26.9849 65.5285 27.1121 67.0551 27.38 68.56C27.4509 68.8128 27.5857 69.0431 27.7713 69.2287C27.957 69.4144 28.1873 69.5491 28.44 69.62C30.9481 69.9222 33.4743 70.0492 36 70C38.5258 70.0492 41.0519 69.9222 43.56 69.62C43.8128 69.5491 44.0431 69.4144 44.2287 69.2287C44.4144 69.0431 44.5491 68.8128 44.62 68.56C44.8879 67.0551 45.0151 65.5285 45 64C45.0151 62.4715 44.8879 60.9449 44.62 59.44C44.5491 59.1872 44.4144 58.9569 44.2287 58.7713C44.0431 58.5856 43.8128 58.4509 43.56 58.38C41.0519 58.0778 38.5258 57.9508 36 58ZM36 57C36 57 42.25 57 43.81 57.42C44.2341 57.5344 44.6208 57.758 44.9314 58.0686C45.242 58.3792 45.4657 58.7659 45.58 59.19C45.8697 60.7767 46.0103 62.3871 46 64C46.0103 65.6129 45.8697 67.2233 45.58 68.81C45.4657 69.2341 45.242 69.6208 44.9314 69.9314C44.6208 70.242 44.2341 70.4656 43.81 70.58C42.25 71 36 71 36 71C36 71 29.75 71 28.19 70.58C27.7659 70.4656 27.3792 70.242 27.0686 69.9314C26.758 69.6208 26.5344 69.2341 26.42 68.81C26.1304 67.2233 25.9898 65.6129 26 64C25.9898 62.3871 26.1304 60.7767 26.42 59.19C26.5344 58.7659 26.758 58.3792 27.0686 58.0686C27.3792 57.758 27.7659 57.5344 28.19 57.42C29.75 57 36 57 36 57Z" fill="white"/>
</g>
<path d="M76.1904 64.0439L78.7881 59.0469H80.2783L76.8467 65.2881V69H75.5342V65.2881L72.1025 59.0469H73.6064L76.1904 64.0439ZM80.5791 65.2334C80.5791 64.5088 80.7204 63.8571 81.0029 63.2783C81.29 62.6995 81.6865 62.2529 82.1924 61.9385C82.7028 61.624 83.2839 61.4668 83.9355 61.4668C84.9427 61.4668 85.7562 61.8154 86.376 62.5127C87.0003 63.21 87.3125 64.1374 87.3125 65.2949V65.3838C87.3125 66.1038 87.1735 66.751 86.8955 67.3252C86.6221 67.8949 86.2279 68.3392 85.7129 68.6582C85.2025 68.9772 84.6146 69.1367 83.9492 69.1367C82.9466 69.1367 82.1331 68.7881 81.5088 68.0908C80.889 67.3936 80.5791 66.4707 80.5791 65.3223V65.2334ZM81.8506 65.3838C81.8506 66.2041 82.0397 66.8626 82.418 67.3594C82.8008 67.8561 83.3112 68.1045 83.9492 68.1045C84.5918 68.1045 85.1022 67.8538 85.4805 67.3525C85.8587 66.8467 86.0479 66.1403 86.0479 65.2334C86.0479 64.4222 85.8542 63.766 85.4668 63.2646C85.084 62.7588 84.5736 62.5059 83.9355 62.5059C83.3112 62.5059 82.8076 62.7542 82.4248 63.251C82.042 63.7477 81.8506 64.4587 81.8506 65.3838ZM93.4648 68.2686C92.9727 68.8473 92.2503 69.1367 91.2979 69.1367C90.5094 69.1367 89.9079 68.9089 89.4932 68.4531C89.083 67.9928 88.8757 67.3138 88.8711 66.416V61.6035H90.1357V66.3818C90.1357 67.5029 90.5915 68.0635 91.5029 68.0635C92.4691 68.0635 93.1117 67.7035 93.4307 66.9834V61.6035H94.6953V69H93.4922L93.4648 68.2686ZM98.3389 59.8125V61.6035H99.7197V62.5811H98.3389V67.168C98.3389 67.4642 98.4004 67.6875 98.5234 67.8379C98.6465 67.9837 98.8561 68.0566 99.1523 68.0566C99.2982 68.0566 99.4987 68.0293 99.7539 67.9746V69C99.4212 69.0911 99.0977 69.1367 98.7832 69.1367C98.2181 69.1367 97.792 68.9658 97.5049 68.624C97.2178 68.2822 97.0742 67.7969 97.0742 67.168V62.5811H95.7275V61.6035H97.0742V59.8125H98.3389ZM105.77 68.2686C105.277 68.8473 104.555 69.1367 103.603 69.1367C102.814 69.1367 102.213 68.9089 101.798 68.4531C101.388 67.9928 101.18 67.3138 101.176 66.416V61.6035H102.44V66.3818C102.44 67.5029 102.896 68.0635 103.808 68.0635C104.774 68.0635 105.416 67.7035 105.735 66.9834V61.6035H107V69H105.797L105.77 68.2686ZM115.189 65.3838C115.189 66.514 114.93 67.4232 114.41 68.1113C113.891 68.7949 113.193 69.1367 112.318 69.1367C111.384 69.1367 110.662 68.8063 110.151 68.1455L110.09 69H108.928V58.5H110.192V62.417C110.703 61.7835 111.407 61.4668 112.305 61.4668C113.202 61.4668 113.907 61.8063 114.417 62.4854C114.932 63.1644 115.189 64.0941 115.189 65.2744V65.3838ZM113.925 65.2402C113.925 64.3789 113.758 63.7135 113.426 63.2441C113.093 62.7747 112.615 62.54 111.99 62.54C111.156 62.54 110.557 62.9274 110.192 63.7021V66.9014C110.58 67.6761 111.184 68.0635 112.004 68.0635C112.61 68.0635 113.082 67.8288 113.419 67.3594C113.756 66.89 113.925 66.1836 113.925 65.2402ZM119.858 69.1367C118.856 69.1367 118.04 68.8086 117.411 68.1523C116.782 67.4915 116.468 66.6097 116.468 65.5068V65.2744C116.468 64.5407 116.607 63.8867 116.885 63.3125C117.167 62.7337 117.559 62.2826 118.061 61.959C118.566 61.6309 119.113 61.4668 119.701 61.4668C120.663 61.4668 121.41 61.7835 121.943 62.417C122.477 63.0505 122.743 63.9574 122.743 65.1377V65.6641H117.732C117.751 66.3932 117.963 66.9834 118.368 67.4346C118.778 67.8812 119.298 68.1045 119.927 68.1045C120.373 68.1045 120.752 68.0133 121.062 67.8311C121.371 67.6488 121.643 67.4072 121.875 67.1064L122.647 67.708C122.028 68.6605 121.098 69.1367 119.858 69.1367ZM119.701 62.5059C119.191 62.5059 118.762 62.6927 118.416 63.0664C118.07 63.4355 117.855 63.9551 117.773 64.625H121.479V64.5293C121.442 63.8867 121.269 63.39 120.959 63.0391C120.649 62.6836 120.23 62.5059 119.701 62.5059ZM129.196 65.1035V69H127.884V59.0469H131.555C132.644 59.0469 133.496 59.3249 134.111 59.8809C134.731 60.4368 135.041 61.1729 135.041 62.0889C135.041 63.055 134.738 63.8001 134.132 64.3242C133.53 64.8438 132.667 65.1035 131.541 65.1035H129.196ZM129.196 64.0303H131.555C132.257 64.0303 132.794 63.8662 133.168 63.5381C133.542 63.2054 133.729 62.7269 133.729 62.1025C133.729 61.5101 133.542 61.0361 133.168 60.6807C132.794 60.3252 132.282 60.1406 131.63 60.127H129.196V64.0303ZM140.093 62.7383C139.901 62.7064 139.694 62.6904 139.471 62.6904C138.641 62.6904 138.078 63.0436 137.782 63.75V69H136.518V61.6035H137.748L137.769 62.458C138.183 61.7972 138.771 61.4668 139.532 61.4668C139.778 61.4668 139.965 61.4987 140.093 61.5625V62.7383ZM144.194 69.1367C143.192 69.1367 142.376 68.8086 141.747 68.1523C141.118 67.4915 140.804 66.6097 140.804 65.5068V65.2744C140.804 64.5407 140.943 63.8867 141.221 63.3125C141.503 62.7337 141.895 62.2826 142.396 61.959C142.902 61.6309 143.449 61.4668 144.037 61.4668C144.999 61.4668 145.746 61.7835 146.279 62.417C146.812 63.0505 147.079 63.9574 147.079 65.1377V65.6641H142.068C142.087 66.3932 142.299 66.9834 142.704 67.4346C143.114 67.8812 143.634 68.1045 144.263 68.1045C144.709 68.1045 145.088 68.0133 145.397 67.8311C145.707 67.6488 145.979 67.4072 146.211 67.1064L146.983 67.708C146.364 68.6605 145.434 69.1367 144.194 69.1367ZM144.037 62.5059C143.527 62.5059 143.098 62.6927 142.752 63.0664C142.406 63.4355 142.191 63.9551 142.109 64.625H145.814V64.5293C145.778 63.8867 145.605 63.39 145.295 63.0391C144.985 62.6836 144.566 62.5059 144.037 62.5059ZM149.738 61.6035L149.772 62.4238C150.315 61.7858 151.046 61.4668 151.967 61.4668C153.001 61.4668 153.705 61.8633 154.079 62.6562C154.325 62.3008 154.644 62.0137 155.036 61.7949C155.433 61.5762 155.9 61.4668 156.438 61.4668C158.06 61.4668 158.885 62.3258 158.912 64.0439V69H157.647V64.1191C157.647 63.5905 157.527 63.1963 157.285 62.9365C157.044 62.6722 156.638 62.54 156.068 62.54C155.599 62.54 155.209 62.6813 154.899 62.9639C154.59 63.2419 154.41 63.6178 154.359 64.0918V69H153.088V64.1533C153.088 63.0778 152.562 62.54 151.509 62.54C150.679 62.54 150.112 62.8932 149.807 63.5996V69H148.542V61.6035H149.738ZM162.2 69H160.936V61.6035H162.2V69ZM160.833 59.6416C160.833 59.4365 160.895 59.2633 161.018 59.1221C161.145 58.9808 161.332 58.9102 161.578 58.9102C161.824 58.9102 162.011 58.9808 162.139 59.1221C162.266 59.2633 162.33 59.4365 162.33 59.6416C162.33 59.8467 162.266 60.0176 162.139 60.1543C162.011 60.291 161.824 60.3594 161.578 60.3594C161.332 60.3594 161.145 60.291 161.018 60.1543C160.895 60.0176 160.833 59.8467 160.833 59.6416ZM168.797 68.2686C168.305 68.8473 167.582 69.1367 166.63 69.1367C165.841 69.1367 165.24 68.9089 164.825 68.4531C164.415 67.9928 164.208 67.3138 164.203 66.416V61.6035H165.468V66.3818C165.468 67.5029 165.924 68.0635 166.835 68.0635C167.801 68.0635 168.444 67.7035 168.763 66.9834V61.6035H170.027V69H168.824L168.797 68.2686ZM173.145 61.6035L173.179 62.4238C173.721 61.7858 174.452 61.4668 175.373 61.4668C176.408 61.4668 177.112 61.8633 177.485 62.6562C177.731 62.3008 178.05 62.0137 178.442 61.7949C178.839 61.5762 179.306 61.4668 179.844 61.4668C181.466 61.4668 182.291 62.3258 182.318 64.0439V69H181.054V64.1191C181.054 63.5905 180.933 63.1963 180.691 62.9365C180.45 62.6722 180.044 62.54 179.475 62.54C179.005 62.54 178.616 62.6813 178.306 62.9639C177.996 63.2419 177.816 63.6178 177.766 64.0918V69H176.494V64.1533C176.494 63.0778 175.968 62.54 174.915 62.54C174.086 62.54 173.518 62.8932 173.213 63.5996V69H171.948V61.6035H173.145Z" fill="white"/>
<g clip-path="url(#clip1_8956_729)">
<path d="M34 104H32V106H30V104H28V102H30V100H32V102H34V104ZM41 104.5C41 103.67 40.33 103 39.5 103C38.67 103 38 103.67 38 104.5C38 105.33 38.67 106 39.5 106C40.33 106 41 105.33 41 104.5ZM44 101.5C44 100.67 43.33 100 42.5 100C41.67 100 41 100.67 41 101.5C41 102.33 41.67 103 42.5 103C43.33 103 44 102.33 44 101.5ZM40.97 97.15L36.47 99.68L35.98 99.95L35.49 99.68L30.99 97.15L27 99.39V105.82L35.98 110.86L44.96 105.82V99.39L40.97 97.15ZM40.97 96L45.96 98.8V106.4L35.98 112L26 106.4V98.8L30.99 96L35.98 98.8L40.97 96Z" fill="white"/>
</g>
<path d="M80.5039 107.694C80.1667 108.177 79.695 108.54 79.0889 108.781C78.4873 109.018 77.7855 109.137 76.9834 109.137C76.1722 109.137 75.4521 108.948 74.8232 108.569C74.1943 108.187 73.7067 107.644 73.3604 106.942C73.0186 106.241 72.8431 105.427 72.834 104.502V103.634C72.834 102.134 73.1826 100.972 73.8799 100.147C74.5817 99.3226 75.5661 98.9102 76.833 98.9102C77.8721 98.9102 78.7083 99.1768 79.3418 99.71C79.9753 100.239 80.3626 100.991 80.5039 101.966H79.1914C78.9453 100.649 78.1615 99.9902 76.8398 99.9902C75.9603 99.9902 75.2926 100.3 74.8369 100.92C74.3857 101.535 74.1579 102.428 74.1533 103.6V104.413C74.1533 105.53 74.4085 106.418 74.9189 107.079C75.4294 107.735 76.1198 108.063 76.9902 108.063C77.4824 108.063 77.9131 108.009 78.2822 107.899C78.6514 107.79 78.9567 107.605 79.1982 107.346V105.11H76.8945V104.044H80.5039V107.694ZM87.0664 109C86.9935 108.854 86.9342 108.594 86.8887 108.221C86.3008 108.831 85.599 109.137 84.7832 109.137C84.054 109.137 83.4548 108.932 82.9854 108.521C82.5205 108.107 82.2881 107.583 82.2881 106.949C82.2881 106.179 82.5798 105.582 83.1631 105.158C83.751 104.73 84.5758 104.516 85.6377 104.516H86.8682V103.935C86.8682 103.493 86.736 103.142 86.4717 102.882C86.2074 102.618 85.8177 102.485 85.3027 102.485C84.8516 102.485 84.4733 102.599 84.168 102.827C83.8626 103.055 83.71 103.331 83.71 103.654H82.4385C82.4385 103.285 82.5684 102.93 82.8281 102.588C83.0924 102.242 83.4479 101.968 83.8945 101.768C84.3457 101.567 84.8402 101.467 85.3779 101.467C86.2301 101.467 86.8978 101.681 87.3809 102.109C87.8639 102.533 88.1146 103.119 88.1328 103.866V107.271C88.1328 107.95 88.2194 108.49 88.3926 108.891V109H87.0664ZM84.9678 108.036C85.3643 108.036 85.7402 107.934 86.0957 107.729C86.4512 107.523 86.7087 107.257 86.8682 106.929V105.411H85.877C84.3275 105.411 83.5527 105.865 83.5527 106.771C83.5527 107.168 83.6849 107.478 83.9492 107.701C84.2135 107.924 84.5531 108.036 84.9678 108.036ZM91.3047 101.604L91.3389 102.424C91.8812 101.786 92.6126 101.467 93.5332 101.467C94.5677 101.467 95.2718 101.863 95.6455 102.656C95.8916 102.301 96.2106 102.014 96.6025 101.795C96.999 101.576 97.4661 101.467 98.0039 101.467C99.6263 101.467 100.451 102.326 100.479 104.044V109H99.2139V104.119C99.2139 103.59 99.0931 103.196 98.8516 102.937C98.61 102.672 98.2044 102.54 97.6348 102.54C97.1654 102.54 96.7757 102.681 96.4658 102.964C96.1559 103.242 95.9759 103.618 95.9258 104.092V109H94.6543V104.153C94.6543 103.078 94.1279 102.54 93.0752 102.54C92.2458 102.54 91.6784 102.893 91.373 103.6V109H90.1084V101.604H91.3047ZM103.767 109H102.502V101.604H103.767V109ZM102.399 99.6416C102.399 99.4365 102.461 99.2633 102.584 99.1221C102.712 98.9808 102.898 98.9102 103.145 98.9102C103.391 98.9102 103.577 98.9808 103.705 99.1221C103.833 99.2633 103.896 99.4365 103.896 99.6416C103.896 99.8467 103.833 100.018 103.705 100.154C103.577 100.291 103.391 100.359 103.145 100.359C102.898 100.359 102.712 100.291 102.584 100.154C102.461 100.018 102.399 99.8467 102.399 99.6416ZM106.993 101.604L107.034 102.533C107.599 101.822 108.338 101.467 109.249 101.467C110.812 101.467 111.601 102.349 111.614 104.112V109H110.35V104.105C110.345 103.572 110.222 103.178 109.98 102.923C109.743 102.668 109.372 102.54 108.866 102.54C108.456 102.54 108.096 102.649 107.786 102.868C107.476 103.087 107.235 103.374 107.062 103.729V109H105.797V101.604H106.993ZM113.221 105.24C113.221 104.087 113.487 103.171 114.021 102.492C114.554 101.809 115.26 101.467 116.14 101.467C117.042 101.467 117.746 101.786 118.252 102.424L118.313 101.604H119.469V108.822C119.469 109.779 119.184 110.534 118.614 111.085C118.049 111.636 117.288 111.912 116.331 111.912C115.798 111.912 115.276 111.798 114.766 111.57C114.255 111.342 113.866 111.03 113.597 110.634L114.253 109.875C114.795 110.545 115.458 110.88 116.242 110.88C116.857 110.88 117.336 110.707 117.678 110.36C118.024 110.014 118.197 109.526 118.197 108.897V108.262C117.691 108.845 117.001 109.137 116.126 109.137C115.26 109.137 114.558 108.788 114.021 108.091C113.487 107.394 113.221 106.443 113.221 105.24ZM114.492 105.384C114.492 106.218 114.663 106.874 115.005 107.353C115.347 107.826 115.825 108.063 116.44 108.063C117.238 108.063 117.824 107.701 118.197 106.977V103.6C117.81 102.893 117.229 102.54 116.454 102.54C115.839 102.54 115.358 102.779 115.012 103.258C114.665 103.736 114.492 104.445 114.492 105.384Z" fill="white"/>
<g clip-path="url(#clip2_8956_729)">
<path d="M38 144C38 145.1 37.1 146 36 146C34.9 146 34 145.1 34 144C34 142.9 34.9 142 36 142C37.1 142 38 142.9 38 144ZM32.48 140.45L31.77 139.75C30.68 140.83 30 142.34 30 144C30 145.66 30.68 147.17 31.77 148.25L32.48 147.54C31.57 146.64 31 145.39 31 144C31 142.61 31.57 141.36 32.48 140.45ZM40.23 139.75L39.52 140.46C40.43 141.36 41 142.61 41 144C41 145.39 40.43 146.64 39.52 147.55L40.23 148.26C41.32 147.17 42 145.66 42 144C42 142.34 41.32 140.83 40.23 139.75ZM29.65 137.63L28.95 136.92C27.13 138.73 26 141.24 26 144C26 146.76 27.13 149.27 28.95 151.08L29.66 150.37C28.02 148.74 27 146.49 27 144C27 141.51 28.02 139.26 29.65 137.63ZM43.05 136.92L42.34 137.63C43.98 139.26 45 141.51 45 144C45 146.49 43.98 148.74 42.35 150.37L43.06 151.08C44.87 149.27 46 146.76 46 144C46 141.24 44.87 138.73 43.05 136.92Z" fill="white"/>
</g>
<path d="M74.4746 147.927H79.1914V149H73.1553V139.047H74.4746V147.927ZM81.8643 149H80.5996V141.604H81.8643V149ZM80.4971 139.642C80.4971 139.437 80.5586 139.263 80.6816 139.122C80.8092 138.981 80.9961 138.91 81.2422 138.91C81.4883 138.91 81.6751 138.981 81.8027 139.122C81.9303 139.263 81.9941 139.437 81.9941 139.642C81.9941 139.847 81.9303 140.018 81.8027 140.154C81.6751 140.291 81.4883 140.359 81.2422 140.359C80.9961 140.359 80.8092 140.291 80.6816 140.154C80.5586 140.018 80.4971 139.847 80.4971 139.642ZM86.335 147.284L88.167 141.604H89.459L86.8066 149H85.8428L83.1631 141.604H84.4551L86.335 147.284ZM93.6494 149.137C92.6468 149.137 91.8311 148.809 91.2021 148.152C90.5732 147.492 90.2588 146.61 90.2588 145.507V145.274C90.2588 144.541 90.3978 143.887 90.6758 143.312C90.9583 142.734 91.3503 142.283 91.8516 141.959C92.3574 141.631 92.9043 141.467 93.4922 141.467C94.4538 141.467 95.2012 141.784 95.7344 142.417C96.2676 143.05 96.5342 143.957 96.5342 145.138V145.664H91.5234C91.5417 146.393 91.7536 146.983 92.1592 147.435C92.5693 147.881 93.0889 148.104 93.7178 148.104C94.1644 148.104 94.5426 148.013 94.8525 147.831C95.1624 147.649 95.4336 147.407 95.666 147.106L96.4385 147.708C95.8187 148.66 94.889 149.137 93.6494 149.137ZM93.4922 142.506C92.9818 142.506 92.5534 142.693 92.207 143.066C91.8607 143.436 91.6465 143.955 91.5645 144.625H95.2695V144.529C95.2331 143.887 95.0599 143.39 94.75 143.039C94.4401 142.684 94.0208 142.506 93.4922 142.506Z" fill="white"/>
<g clip-path="url(#clip3_8956_729)">
<path d="M41 175V177V178V182V182.51L40.99 182.97C40.94 185.1 39.66 186.94 37.74 187.67H37.72L37.66 187.69L37 187.95V188.65V191V192H38V193H39H34V192H35V191V188.65V187.95L34.34 187.71L34.26 187.68H34.25C32.33 186.95 31.05 185.11 31 182.98V182.51V182V178V177V175H41ZM42 174H30V177H28V178V182V183H30.01C30.07 185.53 31.63 187.78 33.97 188.64C33.98 188.64 33.99 188.64 34 188.65V191H33V192H32V194H40V192H39V191H38V188.65C38.01 188.65 38.02 188.65 38.03 188.64C40.36 187.78 41.93 185.54 41.99 183H44V182V178V177H42V174ZM42 182V178H43V182H42ZM29 182V178H30V182H29Z" fill="white"/>
</g>
<path d="M76.0879 184.563C74.9622 184.24 74.1419 183.843 73.627 183.374C73.1165 182.9 72.8613 182.317 72.8613 181.624C72.8613 180.84 73.1735 180.193 73.7979 179.683C74.4268 179.168 75.2425 178.91 76.2451 178.91C76.9287 178.91 77.5371 179.042 78.0703 179.307C78.6081 179.571 79.0228 179.936 79.3145 180.4C79.6107 180.865 79.7588 181.373 79.7588 181.925H78.4395C78.4395 181.323 78.248 180.852 77.8652 180.51C77.4824 180.163 76.9424 179.99 76.2451 179.99C75.598 179.99 75.0921 180.134 74.7275 180.421C74.3675 180.703 74.1875 181.098 74.1875 181.604C74.1875 182.009 74.3584 182.353 74.7002 182.636C75.0465 182.914 75.6322 183.169 76.457 183.401C77.2865 183.634 77.9336 183.891 78.3984 184.174C78.8678 184.452 79.2142 184.778 79.4375 185.151C79.6654 185.525 79.7793 185.965 79.7793 186.471C79.7793 187.277 79.4648 187.924 78.8359 188.412C78.207 188.895 77.3662 189.137 76.3135 189.137C75.6299 189.137 74.9919 189.007 74.3994 188.747C73.807 188.483 73.349 188.123 73.0254 187.667C72.7064 187.211 72.5469 186.694 72.5469 186.115H73.8662C73.8662 186.717 74.0872 187.193 74.5293 187.544C74.9759 187.89 75.5706 188.063 76.3135 188.063C77.0062 188.063 77.5371 187.922 77.9062 187.64C78.2754 187.357 78.46 186.972 78.46 186.484C78.46 185.997 78.2891 185.621 77.9473 185.356C77.6055 185.088 76.9857 184.823 76.0879 184.563ZM87.5176 185.384C87.5176 186.509 87.2601 187.416 86.7451 188.104C86.2301 188.793 85.5329 189.137 84.6533 189.137C83.7555 189.137 83.0492 188.852 82.5342 188.282V191.844H81.2695V181.604H82.4248L82.4863 182.424C83.0013 181.786 83.7168 181.467 84.6328 181.467C85.5215 181.467 86.2233 181.802 86.7383 182.472C87.2578 183.142 87.5176 184.074 87.5176 185.268V185.384ZM86.2529 185.24C86.2529 184.406 86.0752 183.748 85.7197 183.265C85.3643 182.782 84.8766 182.54 84.2568 182.54C83.4912 182.54 82.917 182.88 82.5342 183.559V187.093C82.9124 187.767 83.4912 188.104 84.2705 188.104C84.8766 188.104 85.3574 187.865 85.7129 187.387C86.0729 186.904 86.2529 186.188 86.2529 185.24ZM88.7959 185.233C88.7959 184.509 88.9372 183.857 89.2197 183.278C89.5068 182.7 89.9033 182.253 90.4092 181.938C90.9196 181.624 91.5007 181.467 92.1523 181.467C93.1595 181.467 93.973 181.815 94.5928 182.513C95.2171 183.21 95.5293 184.137 95.5293 185.295V185.384C95.5293 186.104 95.3903 186.751 95.1123 187.325C94.8389 187.895 94.4447 188.339 93.9297 188.658C93.4193 188.977 92.8314 189.137 92.166 189.137C91.1634 189.137 90.3499 188.788 89.7256 188.091C89.1058 187.394 88.7959 186.471 88.7959 185.322V185.233ZM90.0674 185.384C90.0674 186.204 90.2565 186.863 90.6348 187.359C91.0176 187.856 91.528 188.104 92.166 188.104C92.8086 188.104 93.319 187.854 93.6973 187.353C94.0755 186.847 94.2646 186.14 94.2646 185.233C94.2646 184.422 94.071 183.766 93.6836 183.265C93.3008 182.759 92.7904 182.506 92.1523 182.506C91.528 182.506 91.0244 182.754 90.6416 183.251C90.2588 183.748 90.0674 184.459 90.0674 185.384ZM100.69 182.738C100.499 182.706 100.292 182.69 100.068 182.69C99.2389 182.69 98.6761 183.044 98.3799 183.75V189H97.1152V181.604H98.3457L98.3662 182.458C98.7809 181.797 99.3688 181.467 100.13 181.467C100.376 181.467 100.563 181.499 100.69 181.562V182.738ZM103.917 179.812V181.604H105.298V182.581H103.917V187.168C103.917 187.464 103.979 187.688 104.102 187.838C104.225 187.984 104.434 188.057 104.73 188.057C104.876 188.057 105.077 188.029 105.332 187.975V189C104.999 189.091 104.676 189.137 104.361 189.137C103.796 189.137 103.37 188.966 103.083 188.624C102.796 188.282 102.652 187.797 102.652 187.168V182.581H101.306V181.604H102.652V179.812H103.917ZM111.088 187.038C111.088 186.696 110.958 186.432 110.698 186.245C110.443 186.054 109.994 185.89 109.352 185.753C108.714 185.616 108.205 185.452 107.827 185.261C107.453 185.069 107.175 184.841 106.993 184.577C106.815 184.313 106.727 183.998 106.727 183.634C106.727 183.028 106.982 182.515 107.492 182.096C108.007 181.676 108.663 181.467 109.461 181.467C110.299 181.467 110.979 181.683 111.498 182.116C112.022 182.549 112.284 183.103 112.284 183.777H111.013C111.013 183.431 110.865 183.132 110.568 182.882C110.277 182.631 109.908 182.506 109.461 182.506C109.001 182.506 108.641 182.606 108.381 182.807C108.121 183.007 107.991 183.269 107.991 183.593C107.991 183.898 108.112 184.128 108.354 184.283C108.595 184.438 109.03 184.586 109.659 184.728C110.293 184.869 110.805 185.037 111.197 185.233C111.589 185.429 111.879 185.666 112.065 185.944C112.257 186.218 112.353 186.553 112.353 186.949C112.353 187.61 112.088 188.141 111.56 188.542C111.031 188.938 110.345 189.137 109.502 189.137C108.91 189.137 108.385 189.032 107.93 188.822C107.474 188.613 107.116 188.321 106.856 187.947C106.601 187.569 106.474 187.161 106.474 186.724H107.738C107.761 187.147 107.93 187.485 108.244 187.735C108.563 187.981 108.982 188.104 109.502 188.104C109.98 188.104 110.363 188.009 110.65 187.817C110.942 187.621 111.088 187.362 111.088 187.038Z" fill="white"/>
<path d="M27.5684 23.0469L30.125 30.2656L32.668 23.0469H35.3613V33H33.3037V30.2793L33.5088 25.583L30.8223 33H29.4141L26.7344 25.5898L26.9395 30.2793V33H24.8887V23.0469H27.5684ZM45.3281 28.249C45.3281 29.2288 45.1549 30.0879 44.8086 30.8262C44.4622 31.5645 43.9655 32.1341 43.3184 32.5352C42.6758 32.9362 41.9375 33.1367 41.1035 33.1367C40.2786 33.1367 39.5426 32.9385 38.8955 32.542C38.2484 32.1455 37.7471 31.5804 37.3916 30.8467C37.0361 30.1084 36.8561 29.2607 36.8516 28.3037V27.8115C36.8516 26.8317 37.027 25.9704 37.3779 25.2275C37.7334 24.4801 38.2324 23.9082 38.875 23.5117C39.5221 23.1107 40.2604 22.9102 41.0898 22.9102C41.9193 22.9102 42.6553 23.1107 43.2979 23.5117C43.945 23.9082 44.444 24.4801 44.7949 25.2275C45.1504 25.9704 45.3281 26.8294 45.3281 27.8047V28.249ZM43.25 27.7979C43.25 26.7542 43.0632 25.9613 42.6895 25.4189C42.3158 24.8766 41.7826 24.6055 41.0898 24.6055C40.4017 24.6055 39.8708 24.8743 39.4971 25.4121C39.1234 25.9453 38.9342 26.7292 38.9297 27.7637V28.249C38.9297 29.2653 39.1165 30.0537 39.4902 30.6143C39.8639 31.1748 40.4017 31.4551 41.1035 31.4551C41.7917 31.4551 42.3203 31.1862 42.6895 30.6484C43.0586 30.1061 43.2454 29.3177 43.25 28.2832V27.7979ZM50.5029 29.3564H48.8691V33H46.8184V23.0469H50.5166C51.6924 23.0469 52.5993 23.3089 53.2373 23.833C53.8753 24.3571 54.1943 25.0977 54.1943 26.0547C54.1943 26.7337 54.0462 27.3011 53.75 27.7568C53.4583 28.208 53.014 28.568 52.417 28.8369L54.5703 32.9043V33H52.3691L50.5029 29.3564ZM48.8691 27.6953H50.5234C51.0384 27.6953 51.4372 27.5654 51.7197 27.3057C52.0023 27.0413 52.1436 26.679 52.1436 26.2188C52.1436 25.7493 52.0091 25.3802 51.7402 25.1113C51.4759 24.8424 51.068 24.708 50.5166 24.708H48.8691V27.6953ZM61.748 28.6865H57.8105V31.3525H62.4316V33H55.7598V23.0469H62.418V24.708H57.8105V27.0801H61.748V28.6865ZM73.1094 28.9326H69.1719V33H67.1211V23.0469H73.6016V24.708H69.1719V27.2783H73.1094V28.9326ZM78.4756 29.3564H76.8418V33H74.791V23.0469H78.4893C79.665 23.0469 80.5719 23.3089 81.21 23.833C81.848 24.3571 82.167 25.0977 82.167 26.0547C82.167 26.7337 82.0189 27.3011 81.7227 27.7568C81.431 28.208 80.9867 28.568 80.3896 28.8369L82.543 32.9043V33H80.3418L78.4756 29.3564ZM76.8418 27.6953H78.4961C79.0111 27.6953 79.4098 27.5654 79.6924 27.3057C79.9749 27.0413 80.1162 26.679 80.1162 26.2188C80.1162 25.7493 79.9818 25.3802 79.7129 25.1113C79.4486 24.8424 79.0407 24.708 78.4893 24.708H76.8418V27.6953ZM91.9082 28.249C91.9082 29.2288 91.735 30.0879 91.3887 30.8262C91.0423 31.5645 90.5456 32.1341 89.8984 32.5352C89.2559 32.9362 88.5176 33.1367 87.6836 33.1367C86.8587 33.1367 86.1227 32.9385 85.4756 32.542C84.8285 32.1455 84.3271 31.5804 83.9717 30.8467C83.6162 30.1084 83.4362 29.2607 83.4316 28.3037V27.8115C83.4316 26.8317 83.6071 25.9704 83.958 25.2275C84.3135 24.4801 84.8125 23.9082 85.4551 23.5117C86.1022 23.1107 86.8405 22.9102 87.6699 22.9102C88.4993 22.9102 89.2354 23.1107 89.8779 23.5117C90.5251 23.9082 91.0241 24.4801 91.375 25.2275C91.7305 25.9704 91.9082 26.8294 91.9082 27.8047V28.249ZM89.8301 27.7979C89.8301 26.7542 89.6432 25.9613 89.2695 25.4189C88.8958 24.8766 88.3626 24.6055 87.6699 24.6055C86.9818 24.6055 86.4508 24.8743 86.0771 25.4121C85.7035 25.9453 85.5143 26.7292 85.5098 27.7637V28.249C85.5098 29.2653 85.6966 30.0537 86.0703 30.6143C86.444 31.1748 86.9818 31.4551 87.6836 31.4551C88.3717 31.4551 88.9004 31.1862 89.2695 30.6484C89.6387 30.1061 89.8255 29.3177 89.8301 28.2832V27.7979ZM96.0781 23.0469L98.6348 30.2656L101.178 23.0469H103.871V33H101.813V30.2793L102.019 25.583L99.332 33H97.9238L95.2441 25.5898L95.4492 30.2793V33H93.3984V23.0469H96.0781ZM112.58 27.5312L114.651 23.0469H116.894L113.626 29.3906V33H111.541V29.3906L108.273 23.0469H110.522L112.58 27.5312ZM125.773 28.249C125.773 29.2288 125.6 30.0879 125.254 30.8262C124.908 31.5645 124.411 32.1341 123.764 32.5352C123.121 32.9362 122.383 33.1367 121.549 33.1367C120.724 33.1367 119.988 32.9385 119.341 32.542C118.694 32.1455 118.192 31.5804 117.837 30.8467C117.481 30.1084 117.301 29.2607 117.297 28.3037V27.8115C117.297 26.8317 117.472 25.9704 117.823 25.2275C118.179 24.4801 118.678 23.9082 119.32 23.5117C119.967 23.1107 120.706 22.9102 121.535 22.9102C122.365 22.9102 123.101 23.1107 123.743 23.5117C124.39 23.9082 124.889 24.4801 125.24 25.2275C125.596 25.9704 125.773 26.8294 125.773 27.8047V28.249ZM123.695 27.7979C123.695 26.7542 123.508 25.9613 123.135 25.4189C122.761 24.8766 122.228 24.6055 121.535 24.6055C120.847 24.6055 120.316 24.8743 119.942 25.4121C119.569 25.9453 119.38 26.7292 119.375 27.7637V28.249C119.375 29.2653 119.562 30.0537 119.936 30.6143C120.309 31.1748 120.847 31.4551 121.549 31.4551C122.237 31.4551 122.766 31.1862 123.135 30.6484C123.504 30.1061 123.691 29.3177 123.695 28.2832V27.7979ZM134.797 23.0469V29.6025C134.797 30.6917 134.455 31.5531 133.771 32.1865C133.092 32.82 132.163 33.1367 130.982 33.1367C129.82 33.1367 128.897 32.8291 128.214 32.2139C127.53 31.5986 127.182 30.7533 127.168 29.6777V23.0469H129.219V29.6162C129.219 30.2679 129.374 30.7441 129.684 31.0449C129.998 31.3411 130.431 31.4893 130.982 31.4893C132.135 31.4893 132.721 30.8831 132.739 29.6709V23.0469H134.797ZM143.971 24.708H140.922V33H138.871V24.708H135.863V23.0469H143.971V24.708ZM152.68 23.0469V29.6025C152.68 30.6917 152.338 31.5531 151.654 32.1865C150.975 32.82 150.046 33.1367 148.865 33.1367C147.703 33.1367 146.78 32.8291 146.097 32.2139C145.413 31.5986 145.064 30.7533 145.051 29.6777V23.0469H147.102V29.6162C147.102 30.2679 147.257 30.7441 147.566 31.0449C147.881 31.3411 148.314 31.4893 148.865 31.4893C150.018 31.4893 150.604 30.8831 150.622 29.6709V23.0469H152.68ZM154.361 33V23.0469H157.848C159.055 23.0469 159.971 23.2793 160.596 23.7441C161.22 24.2044 161.532 24.8812 161.532 25.7744C161.532 26.262 161.407 26.6927 161.156 27.0664C160.906 27.4355 160.557 27.7067 160.11 27.8799C160.621 28.0075 161.022 28.265 161.313 28.6523C161.61 29.0397 161.758 29.5137 161.758 30.0742C161.758 31.0312 161.452 31.7559 160.842 32.248C160.231 32.7402 159.361 32.9909 158.23 33H154.361ZM156.412 28.666V31.3525H158.169C158.652 31.3525 159.028 31.2386 159.297 31.0107C159.57 30.7783 159.707 30.4593 159.707 30.0537C159.707 29.1423 159.235 28.6797 158.292 28.666H156.412ZM156.412 27.2168H157.93C158.964 27.1986 159.481 26.7861 159.481 25.9795C159.481 25.5283 159.349 25.2048 159.085 25.0088C158.825 24.8083 158.413 24.708 157.848 24.708H156.412V27.2168ZM169.291 28.6865H165.354V31.3525H169.975V33H163.303V23.0469H169.961V24.708H165.354V27.0801H169.291V28.6865Z" fill="#AAAAAA"/>
<defs>
<clipPath id="clip0_8956_729">
<rect width="24" height="24" fill="white" transform="translate(24 52)"/>
</clipPath>
<clipPath id="clip1_8956_729">
<rect width="24" height="24" fill="white" transform="translate(24 92)"/>
</clipPath>
<clipPath id="clip2_8956_729">
<rect width="24" height="24" fill="white" transform="translate(24 132)"/>
</clipPath>
<clipPath id="clip3_8956_729">
<rect width="24" height="24" fill="white" transform="translate(24 172)"/>
</clipPath>
</defs>
</svg>
