<svg width="124" height="51" viewBox="0 0 124 51" fill="none" xmlns="http://www.w3.org/2000/svg">
<rect x="4" y="7" width="116" height="36" rx="2" fill="#CC0000"/>
<path d="M26.0498 27.3887C26.0498 27.0013 25.9131 26.7051 25.6396 26.5C25.3662 26.2904 24.874 26.0716 24.1631 25.8438C23.4521 25.6113 22.8893 25.3835 22.4746 25.1602C21.3444 24.5495 20.7793 23.7269 20.7793 22.6924C20.7793 22.1546 20.9297 21.6761 21.2305 21.2568C21.5358 20.833 21.971 20.5026 22.5361 20.2656C23.1058 20.0286 23.7438 19.9102 24.4502 19.9102C25.1611 19.9102 25.7946 20.04 26.3506 20.2998C26.9066 20.555 27.3372 20.9173 27.6426 21.3867C27.9525 21.8561 28.1074 22.3893 28.1074 22.9863H26.0566C26.0566 22.5306 25.9131 22.1774 25.626 21.9268C25.3389 21.6715 24.9355 21.5439 24.416 21.5439C23.9147 21.5439 23.5251 21.651 23.2471 21.8652C22.9691 22.0749 22.8301 22.3529 22.8301 22.6992C22.8301 23.0228 22.9919 23.2939 23.3154 23.5127C23.6436 23.7314 24.1243 23.9365 24.7578 24.1279C25.9245 24.4788 26.7744 24.9141 27.3076 25.4336C27.8408 25.9531 28.1074 26.6003 28.1074 27.375C28.1074 28.2363 27.7816 28.9131 27.1299 29.4053C26.4782 29.8929 25.6009 30.1367 24.498 30.1367C23.7324 30.1367 23.0352 29.9977 22.4062 29.7197C21.7773 29.4372 21.2965 29.0521 20.9639 28.5645C20.6357 28.0768 20.4717 27.5117 20.4717 26.8691H22.5293C22.5293 27.9674 23.1855 28.5166 24.498 28.5166C24.9857 28.5166 25.3662 28.4186 25.6396 28.2227C25.9131 28.0221 26.0498 27.7441 26.0498 27.3887ZM37.0352 20.0469V26.6025C37.0352 27.6917 36.6934 28.5531 36.0098 29.1865C35.3307 29.82 34.401 30.1367 33.2207 30.1367C32.0586 30.1367 31.1357 29.8291 30.4521 29.2139C29.7686 28.5986 29.4199 27.7533 29.4062 26.6777V20.0469H31.457V26.6162C31.457 27.2679 31.612 27.7441 31.9219 28.0449C32.2363 28.3411 32.6693 28.4893 33.2207 28.4893C34.3737 28.4893 34.9593 27.8831 34.9775 26.6709V20.0469H37.0352ZM38.7168 30V20.0469H42.2031C43.4108 20.0469 44.3268 20.2793 44.9512 20.7441C45.5755 21.2044 45.8877 21.8812 45.8877 22.7744C45.8877 23.262 45.7624 23.6927 45.5117 24.0664C45.2611 24.4355 44.9124 24.7067 44.4658 24.8799C44.9762 25.0075 45.3773 25.265 45.6689 25.6523C45.9652 26.0397 46.1133 26.5137 46.1133 27.0742C46.1133 28.0312 45.8079 28.7559 45.1973 29.248C44.5866 29.7402 43.7161 29.9909 42.5859 30H38.7168ZM40.7676 25.666V28.3525H42.5244C43.0075 28.3525 43.3835 28.2386 43.6523 28.0107C43.9258 27.7783 44.0625 27.4593 44.0625 27.0537C44.0625 26.1423 43.5908 25.6797 42.6475 25.666H40.7676ZM40.7676 24.2168H42.2852C43.3197 24.1986 43.8369 23.7861 43.8369 22.9795C43.8369 22.5283 43.7048 22.2048 43.4404 22.0088C43.1807 21.8083 42.7682 21.708 42.2031 21.708H40.7676V24.2168ZM52.8193 27.3887C52.8193 27.0013 52.6826 26.7051 52.4092 26.5C52.1357 26.2904 51.6436 26.0716 50.9326 25.8438C50.2217 25.6113 49.6589 25.3835 49.2441 25.1602C48.1139 24.5495 47.5488 23.7269 47.5488 22.6924C47.5488 22.1546 47.6992 21.6761 48 21.2568C48.3053 20.833 48.7406 20.5026 49.3057 20.2656C49.8753 20.0286 50.5133 19.9102 51.2197 19.9102C51.9307 19.9102 52.5641 20.04 53.1201 20.2998C53.6761 20.555 54.1068 20.9173 54.4121 21.3867C54.722 21.8561 54.877 22.3893 54.877 22.9863H52.8262C52.8262 22.5306 52.6826 22.1774 52.3955 21.9268C52.1084 21.6715 51.7051 21.5439 51.1855 21.5439C50.6842 21.5439 50.2946 21.651 50.0166 21.8652C49.7386 22.0749 49.5996 22.3529 49.5996 22.6992C49.5996 23.0228 49.7614 23.2939 50.085 23.5127C50.4131 23.7314 50.8939 23.9365 51.5273 24.1279C52.694 24.4788 53.5439 24.9141 54.0771 25.4336C54.6104 25.9531 54.877 26.6003 54.877 27.375C54.877 28.2363 54.5511 28.9131 53.8994 29.4053C53.2477 29.8929 52.3704 30.1367 51.2676 30.1367C50.502 30.1367 49.8047 29.9977 49.1758 29.7197C48.5469 29.4372 48.0661 29.0521 47.7334 28.5645C47.4053 28.0768 47.2412 27.5117 47.2412 26.8691H49.2988C49.2988 27.9674 49.9551 28.5166 51.2676 28.5166C51.7552 28.5166 52.1357 28.4186 52.4092 28.2227C52.6826 28.0221 52.8193 27.7441 52.8193 27.3887ZM64.085 26.6846C64.0075 27.7555 63.611 28.5986 62.8955 29.2139C62.1846 29.8291 61.2458 30.1367 60.0791 30.1367C58.8031 30.1367 57.7982 29.7083 57.0645 28.8516C56.3353 27.9902 55.9707 26.8099 55.9707 25.3105V24.7021C55.9707 23.7451 56.1393 22.902 56.4766 22.1729C56.8138 21.4437 57.2946 20.8854 57.9189 20.498C58.5479 20.1061 59.277 19.9102 60.1064 19.9102C61.2549 19.9102 62.18 20.2178 62.8818 20.833C63.5837 21.4482 63.9893 22.3118 64.0986 23.4238H62.0479C61.9977 22.7812 61.8177 22.3164 61.5078 22.0293C61.2025 21.7376 60.7354 21.5918 60.1064 21.5918C59.4229 21.5918 58.9102 21.8379 58.5684 22.3301C58.2311 22.8177 58.0579 23.5765 58.0488 24.6064V25.3584C58.0488 26.4339 58.2106 27.2201 58.5342 27.7168C58.8623 28.2135 59.3773 28.4619 60.0791 28.4619C60.7126 28.4619 61.1842 28.3184 61.4941 28.0312C61.8086 27.7396 61.9886 27.2907 62.0342 26.6846H64.085ZM69.1162 26.3564H67.4824V30H65.4316V20.0469H69.1299C70.3057 20.0469 71.2126 20.3089 71.8506 20.833C72.4886 21.3571 72.8076 22.0977 72.8076 23.0547C72.8076 23.7337 72.6595 24.3011 72.3633 24.7568C72.0716 25.208 71.6273 25.568 71.0303 25.8369L73.1836 29.9043V30H70.9824L69.1162 26.3564ZM67.4824 24.6953H69.1367C69.6517 24.6953 70.0505 24.5654 70.333 24.3057C70.6156 24.0413 70.7568 23.679 70.7568 23.2188C70.7568 22.7493 70.6224 22.3802 70.3535 22.1113C70.0892 21.8424 69.6813 21.708 69.1299 21.708H67.4824V24.6953ZM76.5537 30H74.5029V20.0469H76.5537V30ZM78.4609 30V20.0469H81.9473C83.1549 20.0469 84.071 20.2793 84.6953 20.7441C85.3197 21.2044 85.6318 21.8812 85.6318 22.7744C85.6318 23.262 85.5065 23.6927 85.2559 24.0664C85.0052 24.4355 84.6566 24.7067 84.21 24.8799C84.7204 25.0075 85.1214 25.265 85.4131 25.6523C85.7093 26.0397 85.8574 26.5137 85.8574 27.0742C85.8574 28.0312 85.5521 28.7559 84.9414 29.248C84.3307 29.7402 83.4603 29.9909 82.3301 30H78.4609ZM80.5117 25.666V28.3525H82.2686C82.7516 28.3525 83.1276 28.2386 83.3965 28.0107C83.6699 27.7783 83.8066 27.4593 83.8066 27.0537C83.8066 26.1423 83.335 25.6797 82.3916 25.666H80.5117ZM80.5117 24.2168H82.0293C83.0638 24.1986 83.5811 23.7861 83.5811 22.9795C83.5811 22.5283 83.4489 22.2048 83.1846 22.0088C82.9248 21.8083 82.5124 21.708 81.9473 21.708H80.5117V24.2168ZM93.3906 25.6865H89.4531V28.3525H94.0742V30H87.4023V20.0469H94.0605V21.708H89.4531V24.0801H93.3906V25.6865ZM100.438 27.3887C100.438 27.0013 100.302 26.7051 100.028 26.5C99.7549 26.2904 99.2627 26.0716 98.5518 25.8438C97.8408 25.6113 97.278 25.3835 96.8633 25.1602C95.7331 24.5495 95.168 23.7269 95.168 22.6924C95.168 22.1546 95.3184 21.6761 95.6191 21.2568C95.9245 20.833 96.3597 20.5026 96.9248 20.2656C97.4945 20.0286 98.1325 19.9102 98.8389 19.9102C99.5498 19.9102 100.183 20.04 100.739 20.2998C101.295 20.555 101.726 20.9173 102.031 21.3867C102.341 21.8561 102.496 22.3893 102.496 22.9863H100.445C100.445 22.5306 100.302 22.1774 100.015 21.9268C99.7275 21.6715 99.3242 21.5439 98.8047 21.5439C98.3034 21.5439 97.9137 21.651 97.6357 21.8652C97.3577 22.0749 97.2188 22.3529 97.2188 22.6992C97.2188 23.0228 97.3805 23.2939 97.7041 23.5127C98.0322 23.7314 98.513 23.9365 99.1465 24.1279C100.313 24.4788 101.163 24.9141 101.696 25.4336C102.229 25.9531 102.496 26.6003 102.496 27.375C102.496 28.2363 102.17 28.9131 101.519 29.4053C100.867 29.8929 99.9896 30.1367 98.8867 30.1367C98.1211 30.1367 97.4238 29.9977 96.7949 29.7197C96.166 29.4372 95.6852 29.0521 95.3525 28.5645C95.0244 28.0768 94.8604 27.5117 94.8604 26.8691H96.918C96.918 27.9674 97.5742 28.5166 98.8867 28.5166C99.3743 28.5166 99.7549 28.4186 100.028 28.2227C100.302 28.0221 100.438 27.7441 100.438 27.3887Z" fill="white"/>
</svg>
